<?xml version="1.0" encoding="UTF-8"?>
<!DOCTYPE svg PUBLIC "-//W3C//DTD SVG 1.1//EN" "http://www.w3.org/Graphics/SVG/1.1/DTD/svg11.dtd">
<!-- Creator: CorelDRAW 2019 (64-Bit Wersja próbna) -->
<svg xmlns="http://www.w3.org/2000/svg" xml:space="preserve" width="755.577mm" height="572.88mm" version="1.1" style="shape-rendering:geometricPrecision; text-rendering:geometricPrecision; image-rendering:optimizeQuality; fill-rule:evenodd; clip-rule:evenodd"
viewBox="0 0 22662.6 17182.85"
 xmlns:xlink="http://www.w3.org/1999/xlink"
 xmlns:xodm="http://www.corel.com/coreldraw/odm/2003">
 <defs>
  <style type="text/css">
   <![CDATA[
    .fil0 {fill:#444C57}
    .fil2 {fill:#444C57;fill-rule:nonzero}
    .fil1 {fill:#4ECDC4;fill-rule:nonzero}
   ]]>
  </style>
 </defs>
 <g id="Warstwa_x0020_1">
  <metadata id="CorelCorpID_0Corel-Layer"/>
  <path class="fil0" d="M7553.1 3427.73c-41.5,35.14 -627.67,217 -721.97,235.25 -180.91,-153.24 -628.72,-646.08 -844.26,-863.85 -105,-106.08 -779.49,-794.29 -878.51,-819.01 23.33,67.83 818.08,974.26 985.17,1131.39 85.02,79.95 127.66,138.06 210.5,220.87l415.29 450.88c-22.7,85.84 -158.74,309.47 -205.11,381.43 -150.6,233.72 -320.25,463.65 -486.26,682 -87.82,115.52 -168.03,229.79 -256.13,328.04 -64.42,71.84 -112.45,40.79 -217.96,12.97 -324.17,-85.46 -751.85,-248.35 -982.71,-478.02l-564.43 -603.32c-36.09,-40.73 -636.2,-729.78 -700.41,-760.08 -64.32,-30.35 -145.73,-56.88 -209.97,-81.42 -86.54,-33.06 -1560.51,-632.85 -1675.75,-617.58 -29.04,3.85 -8.6,-2.31 -27.25,9.98 82.37,46.57 175.29,108.7 269.91,161.01 429.77,237.6 871.03,451.79 1309.9,670.66 67.89,33.86 582.72,606.24 650.24,682.98 239.46,272.14 501.29,534.03 744.19,804.96 46.16,51.49 43.27,68.63 116.89,99.25 191,79.46 1028.07,388.52 1116.43,446.66l2.79 437.16c-285.94,-81.08 -1266.05,-659.74 -1529.02,-514.36 -6.08,202.33 918.43,1173.46 1110.76,1379.99 48.33,51.89 140.13,139 178.19,197.03 -165.83,-29.64 -423.55,-125.9 -591.2,-177.67l-1171.97 -365.51c-157.11,-48.2 -470.42,-168.71 -633.82,-124.01 12.29,80.54 164.49,102.05 274.89,140.77l930 314.38c145.93,48.79 1198.01,394.22 1234.02,426.37 -70.11,124.49 -178.97,282.05 -264.55,405.22 -93.18,134.13 -181.84,276.27 -272.18,413.28 -57.74,87.57 -519.81,806.97 -551.78,818.51l-1422.07 -56.04c-2.41,3.27 -5.82,3.78 -6.84,8.49 -1,4.66 -5.24,5.92 -6.59,7.71 -51.21,67.66 -162.7,315.33 -202.46,334.43 -442.14,30.9 -901.63,47.06 -1346.48,63.43 -214.11,7.88 -1237.04,-16.3 -1332.61,74.63 95.73,64.45 2728.63,86.43 3021.92,58.16 81.35,-117.88 52.86,-242.32 190.46,-328.35 62.76,-5.16 286.26,26.36 380.92,29.69 134.41,4.73 271.37,-2.31 404.08,4.54 -52.84,50.25 -160.52,107.3 -230.55,155.33 -80.94,55.52 -159.95,100.8 -238.75,154.77 -92.01,63.02 -407.83,271.85 -428.24,370.26 145.33,189.88 1170.03,136.15 1471.16,155.58l187.41 529.24c-64,37.76 -1542.39,421.77 -1653.8,451.95 -280.76,76.06 -554.25,147.01 -834.56,219.31 -144.13,37.18 -284.4,72.92 -426.63,107.1 -72.75,17.48 -138.46,32.99 -214.43,51.64 -60.94,14.96 -160.71,36.36 -132.8,110.45 36.67,46.4 534.94,-82.75 614.25,-99.45l1665.46 -364.78c45.99,-10.39 113.24,-35.34 142.23,-18.27 -50.85,64.87 -307.07,214.3 -426.6,343.09 -141.3,152.23 291.66,247.65 425.69,286.3 205.61,59.28 1100.47,299.95 1174.24,399.1 -44.8,56.83 -159.94,96.95 -235.34,132.79 -263.76,125.35 -533.65,227.4 -805.66,337.09 -228.68,92.22 -324.48,154.63 -601.74,117.7l-985.58 -160.02c-63.6,0.04 -1220.38,464.33 -1386.28,522.46 -144.81,50.74 -482.79,130.22 -519.29,243.53 98.4,42.53 944.21,-235.82 1089.45,-281.61 182.38,-57.49 348.57,-111.38 531.71,-167.99 265.12,-81.95 221.35,-48.09 577.39,17.82 200.02,37.03 385.5,73.75 587.96,111.1 632.69,116.72 402.17,144.08 1058.84,-152.12 128.25,-57.85 384.55,-185.88 503.84,-216.43 75.72,213.47 409.31,714.71 417.31,930.48 -56.07,61.31 -360.35,229.54 -464.16,288.81l-963 560.54c-95.71,54.97 -419.84,227.03 -451.1,302.14 65.02,37.34 340.16,-120.1 418.49,-156.92 483.24,-227.14 950.69,-488.78 1425.15,-733.35 92.74,-47.8 109.8,-83.05 215.14,-26.41 136.62,73.45 280.76,136.27 421.19,201.02 249.51,115.05 643.19,259.29 912.05,319.9 -27.69,83.44 -282.45,300.17 -352.73,371.3 -62.14,62.9 -114.59,116.88 -175.63,179.81 -51.38,52.97 -146.59,126.87 -165.85,208.48 133.1,69.15 274.03,73.33 345.76,109.95 -60.48,122.19 -198.62,286.44 -282.3,404.23 -144.48,203.35 -779.04,1055.38 -823.36,1231.49 112.31,-48.57 700.27,-754.22 832.82,-904.63l405.39 -470.43c68.9,-75.59 137.54,-153.66 200.21,-231.75 70.15,-87.4 141.06,-149.68 202.64,-244.66 -82.73,-12.38 -216.25,-20.85 -280.87,-61.45 14.79,-101.91 355.45,-343.97 444.45,-419.18 59.88,-50.61 417.16,-367.43 485.2,-388.49 45.32,109.55 204.61,303.97 277.33,396.73l371.7 466.76c62.17,75.95 -9.45,169.43 -90.5,352.82 -22.04,49.87 -202.23,457.23 -147.96,507.46 20.77,9.25 -26.31,15.2 27.47,4.57 91.75,-18.13 338.68,-663.5 421.01,-765.72 252,-12.76 1661.16,-41.64 1777.02,157.4 21.65,122.37 -126.3,911.73 -156.46,1088.45 -30.82,180.6 -61.46,353.37 -92.22,531.86 -22.92,132.98 -107.98,434.31 -72.77,545.06 105.55,-2.95 117.8,-137.37 140.15,-223.72 123.26,-476.13 228.25,-955.92 342.48,-1434.6 23.38,-97.99 44.05,-189.47 73.61,-281.91 29,-90.7 47.11,-201.32 163.1,-173.96 226.56,53.42 903.37,255.38 1063.66,357.47 184.92,117.79 203.1,585.39 252.57,813.52 10.31,47.51 22.19,99.11 35.62,143.16 17.08,56.04 24.9,100.82 64.97,119.03 68.3,-140.73 -38.48,-748.25 -31.24,-961.23 6.5,-191.26 104.49,-214.68 250.16,-276.97 67.78,-28.99 312.73,-148.01 362.86,-151.89 -0.54,221.45 -36.06,1102.97 143.6,1175.91 141.13,-78.11 534.19,-804.19 665.94,-1020.38 57.74,-94.76 160.66,-297.69 248.27,-321.72 57.23,38.75 66.24,136.84 114.28,198.24 103.73,-36.17 260.27,-187.69 368.22,-223.94 44.41,60.82 99.08,167.99 137.95,241.88 85.46,162.46 336.8,660.83 446.13,722.86 13.04,-29.61 0.1,-76.15 -31.36,-184.22 -19.55,-67.17 -38.65,-127.78 -60.34,-194.08 -121.97,-372.71 -246.59,-766.95 -401.61,-1120.55 -91.46,17.98 -167.43,112.3 -229.25,166.56 -14.73,12.93 -55.8,58.08 -77.58,34.05 -68.71,-157.58 186.19,-330.04 265.93,-392.12 404.78,-315.12 236.11,-203.67 779.18,581.14 42.29,61.11 101.54,168.44 176.02,181.14 87.5,-157.37 79.74,-407.73 111.93,-607.33 72.99,70.4 991.87,1598.04 1134.33,1835.29 34.21,56.98 43.08,89.28 116.78,98.53 -29.15,-235.09 -819.08,-1592.2 -1011.01,-1971.79 -96.97,-191.8 -210.42,-381.85 -278.36,-585.7 -13.7,-41.1 -22.46,-80.37 3.88,-100.33 84.53,-64.04 664.35,1004.9 977.34,989.17 119.5,-188.12 -71.54,-1489.62 -15.7,-1606.86l502.09 456.92c48.48,51.62 80.66,71.4 126.94,114.59l632.75 585.92c78.15,76.09 168.91,144.93 255.24,227.28l258.51 224.07c70.8,57.47 204.34,188.98 286.33,216.43 -58.17,-173.75 -691.69,-794.59 -899.95,-1025.08 -31.05,-34.37 -56.17,-54.34 -89.1,-88.36l-335.91 -362.21c3.44,-39.67 329.65,-1124.03 376.55,-1210.4 26.05,-47.98 1.58,-17.23 31.75,-36.65 141.82,-50.04 1179.1,211.33 1379.79,258.8 224.58,53.12 448.21,108.92 676.04,162.52 167.8,39.48 525.72,150.08 670.08,164.43 -1.56,-84.04 -144.28,-117.87 -216.99,-148.77 -269.23,-114.38 -1751.74,-637.41 -1970.16,-687.22 55.67,-114.23 475.07,-652.66 577.7,-774.18 51.81,-61.35 145.71,-207.48 252.41,-203.79 94.25,103.1 8.79,297.19 72.68,408.38 44.7,77.79 281.55,96.55 381.39,115.33 391.39,73.63 2382.01,473.59 2520.53,415.15 -8.68,-42.32 4.76,-28.76 -57.14,-47.99 -406.55,-126.3 -819.65,-215.3 -1228.25,-321.76 -195.8,-51.01 -1214.02,-285.03 -1312.01,-336.51 -16.15,-158.67 0.91,-373.22 -114.56,-432.59 -142.89,-73.47 -313.26,-33.48 -401.48,-157.13 -60.76,-85.16 -317.01,-689.74 -320.14,-782.42 720.92,-35.85 1421.76,-69.14 2147.74,-72.86 267.08,-1.37 2073.95,12.17 2169.11,-57.37 -295.28,-105.7 -2996.11,-126.59 -3489.63,-125.86 -273.07,0.41 -996.68,17.62 -1217.47,-3.76 129.78,-95.62 909.71,-371.81 880.32,-544.05 -35.04,-78.8 -83.53,-77.98 -186.5,-84.43 -255.22,-15.99 -530.07,4.98 -779.11,35.04 -139.78,16.87 -361.52,95.87 -443.75,-7.14 -52.21,-65.4 -153.49,-281.46 -181.71,-374.77 152.99,-71.28 608.05,-107.1 708.68,-203.56 -41.54,-104.12 -268.81,-158.22 -365.09,-228.55 130.42,-92.96 1897.24,-571.47 2328.76,-716.1l239.83 -89.9c46.62,-21.68 45.09,-18.34 56.72,-60.62 -104.9,-29 -1485.78,277.08 -1698.99,321.88 -284.82,59.86 -566.39,120.9 -850.36,180.7 -277.71,58.48 -566.93,134.93 -834.71,190.68 21.63,94.54 112.88,153.93 166.65,204.21l195.44 172.31 -522.04 110.97c-52.34,-135.43 -280.72,-490.45 -287.74,-618.86 270.58,-152.18 1013.05,-321.37 1213.75,-470.06 -15.88,-162.57 -400.22,-164.25 -489.98,-253.69 15.6,-28.73 11.75,-23.46 51.47,-47.57 19.25,-11.68 41,-23.22 64.74,-36.91 41.17,-23.73 84.21,-47.41 131.27,-71.91 276.33,-143.82 565.2,-273.11 851.66,-405.71l3273.57 -1513.01c60.07,-27.82 113.26,-29.74 117.87,-96.15 -113.71,-53.73 -3189.34,1264.46 -3551.25,1411.12 -185.31,75.1 -1027.47,445.19 -1182.96,490.61 -36.32,-45.79 -203.9,-672.24 -199.74,-758.12 10.38,-214.22 306.89,-396.4 462.7,-499.5 392.31,-259.58 802.06,-491.11 1204.74,-738.04l2119.93 -1270.4c61.76,-36.88 265.62,-144.77 255.34,-230.44 -127.31,7 -2119.45,1142.5 -2287.59,1232.73 -573.71,307.85 -1136.5,634.94 -1706.42,947.42 -99.88,54.76 -189.06,103.23 -285.49,158.75 -66.68,38.39 -222.77,134.12 -287.22,155.12 -77.74,-60.31 -209.78,-184.9 -263.61,-277.07 34.26,-83.49 589.37,-597.55 737.71,-732.11l306.73 -290.04c165.85,-165.27 362.24,-330.96 533.2,-495.23l706.82 -639.19c55.51,-44.8 108.44,-103.17 164.17,-139.71 -14.5,-77.91 -215.55,-350.34 -268.38,-433.05 -126.22,-197.61 -112.02,-183.94 108.53,-426.13 123.17,-135.26 603.92,-674.09 613.8,-788.47 -115.82,31.83 -1059.35,793.49 -1229.78,960.06 28.65,68.76 121.89,181.08 169.21,249.9 44.43,64.61 143.66,195.5 170.56,257.99l-619.22 596.72c-45.35,41.78 -81.5,86.28 -126.29,127.38l-509.37 481.05c-42.5,39.83 -76.84,81.69 -119.83,121.39 -109.1,100.74 -573.94,571.6 -635.85,598.88 -17.86,-209.63 13.09,-617.13 -107.18,-741.86 -135.95,-65.08 -538.37,569.14 -681.6,712 -42.97,42.86 -92.26,43.49 -134.5,-1.6 -74.62,-151.27 390.08,-987.88 467.81,-1138.51l1636.74 -3150.67c4.21,-10.67 11.53,-25.87 13.09,-37.83 11.11,-85.2 10.63,-17.02 -9.37,-46.18 -108.24,139.99 -213.59,326.54 -323.76,488.55 -278.2,409.12 -666.57,1085.44 -937.17,1526.19 -362.87,591.03 -697.38,1194.19 -1103.9,1753.02 -44.23,60.81 -134.61,219.58 -237.37,136.08 -24.78,-34.84 229.9,-584.53 257.55,-662.41l55.22 -173.83c3.4,-17.34 9.44,-52.44 -4.16,-68.84 -135.25,-107.07 -690.71,325.2 -780.1,390.29 -109.71,79.89 -612.81,464.54 -727.58,481.6 -21.14,-180.15 159.39,-1397.04 200.32,-1658.19 21.78,-138.9 90.94,-427.83 55.46,-547.69 -87.98,35.33 -157.61,345.11 -181.68,435.88 -63.81,240.49 -328.69,1313.16 -395.96,1455.24 -135.28,-45.89 -416.89,-346.07 -551.5,-333.38 -63.81,186.46 10.49,625.94 -108.76,741.3 -175.78,36.79 -398.04,-183.35 -432.98,-302.7 -54.2,-185.15 -90.46,-400 -144.22,-591.85 -48.96,-174.69 -123.44,-427.24 -339.62,-377.28 -151.17,34.94 -338.16,206.07 -467.2,273.7l-48.75 -320.37c-14.3,-109.17 -27.63,-229.58 -41.67,-343.63 -74.77,-607.49 -139.76,-1224.42 -249.18,-1830.85 -12.15,-67.37 -8.53,-110.26 -65.09,-122.46 -94.24,273.21 215.83,2503.27 163.46,2727.64 -107.38,61.55 -873.77,466.72 -937.85,479.65 -166.97,-380.92 -238.26,-871.45 -375.47,-1273.8 -43.86,-128.61 -113.53,-301.64 -140.07,-428.67 119.38,34.16 323.89,190.27 445.07,187.55 4.69,-22.92 -441.14,-2197.38 -549.56,-2251.11 -53.15,375.79 239.27,1351.92 236.66,1798.8 -178.92,-4.51 -378.92,-84.32 -540.28,-81.85 -30.64,181.19 229.27,764.35 244.22,980.92 -330.18,68.6 -650.57,146.43 -966.8,252.12 -84.97,28.4 -229.92,88.82 -315.13,100.13 -22.84,-58.77 -1879.25,-2673.54 -2086.59,-2980.53 -79.14,-117.18 -227.96,-365.47 -336.82,-401.4 40.16,184.33 971.48,1553.26 1089.22,1731.09 73.36,110.81 1083.5,1586.97 1133.43,1696.64zm2654.6 2608.68c-79.14,163.7 35.72,178.19 -164.42,320.51 -91.3,64.92 -203.51,121.47 -307.32,178.18 -105.47,57.63 -212.75,110.94 -321.39,164.3 -90.88,44.64 -235.83,129.79 -326.61,157.67 -54.91,-43.52 -412.2,-407.94 -447.91,-418.3 -11.04,351.13 62.91,617.79 -176.55,765.89 -103.42,63.96 -93.27,67.4 -159.52,154.6 -140.45,184.85 -137.28,226.09 -237.24,390.68 -113.69,187.19 -237.12,139.43 -480.3,147.94 25.05,62.23 269.92,264.07 330.12,375.49 73,135.1 -50.67,426.12 -104.12,550.2 -113.32,263.08 -289.96,336.57 -195.01,461.83 231.07,304.81 -79.55,449.49 -94.43,471.31 74.89,121.11 267.76,84.78 300.55,292.79 84.59,536.62 -186.42,518.74 341.79,1458.18 232.08,412.77 400.36,337.33 670.35,528.48 231.3,163.77 104.65,287.08 255.47,343.81 214.94,80.84 594.62,-21.52 1393.56,420.83 360.23,199.45 357.64,272.45 791.75,407.29 273.25,84.88 312.26,108.2 457.1,8.13 112.3,-77.6 637.47,-473.75 705.74,-494.95 160.67,-49.88 202.31,226.25 346.78,247.68 57.27,-40.32 74.58,-102.16 135.55,-149.77 83.06,-64.85 124.96,-25.67 226.48,-59.25 218.36,-72.22 369.21,-310.5 551.71,-320.95 107.12,-6.14 166.71,48.33 246.07,55.05 168.26,14.27 383.56,-394.24 576.25,-587.26 348.73,-349.33 432.02,89.59 602.97,-125.3 36.56,-45.96 87.13,-130.83 114.51,-185.13 26.95,-53.44 76.15,-147.69 53.84,-219.79 -62.12,-200.77 -241.96,147.07 -299.56,-479.65 -7.1,-77.25 -11.89,-163.54 -9.64,-240.96 5.3,-182.11 29.84,-142.07 48.68,-213.88 -57,-53.49 -148.89,-50.23 -181.56,-109.54 -48.25,-87.59 13.09,-419.27 37.75,-528.68 8.46,-37.53 18.88,-79.28 31.06,-113.35 19.5,-54.52 36.8,-62.73 50.93,-109.49 -169.98,-134.25 -245.16,-42.34 -267.13,-466.27 -10.21,-197.01 -45.37,-540.59 -26.81,-723.73 58.15,-18.33 347.82,-103.78 395.82,-147.82 -53.31,-111.05 -171.92,-288.04 -243.48,-403.13 -39.02,-62.76 -16.73,-69.35 25.14,-126.65l355.48 -507.22c-207.51,-20.63 -572.97,-17.51 -748.88,-80.46 -247.24,-88.47 -104.66,-221.45 -723.29,-533.92 -289.18,-146.07 -548.49,-349.48 -829.29,-441.68 -129.42,-42.5 -184.83,-78.76 -259.61,-154.66 -108.09,-109.71 -172.45,38.7 -267.79,86.24 -119.78,59.72 -526.45,-78.85 -709.12,-92.65 -124.5,-9.41 -253.45,-0.54 -360.05,-55.61 -180.27,-93.13 -451.48,27.31 -707.43,72.1 -90.12,15.77 -361.82,19.01 -396.99,30.84zm5693.42 6750.91l119.33 -486.88c94.07,21.75 348.32,336.53 428.33,416.05l400.57 435.23c42.87,-61.66 181.83,-597.49 215.84,-721.58 20.84,-76.04 91.92,-318.61 81.75,-394.71 -13.94,-104.27 -268.84,-29.09 -392.53,-5.08 -192.1,37.29 -612.93,105.96 -757.66,182.19 -102.92,54.2 -136.95,153.48 -191.6,277.96 -19.39,44.16 -56.68,123.12 -35.63,181.88 17.42,48.64 74.18,104.63 131.61,114.93zm-12096.6 -1522.15c195.99,45.82 413.06,119.43 615.3,174.27 189.83,51.48 432.49,135.13 624.24,162.55 -4.09,-113.75 -149.97,-778.53 -193.72,-847 -106.6,19.23 -632.68,288.62 -787.15,367.97 -42.27,21.71 -82.87,40.94 -126.89,63.5 -55.19,28.28 -101.41,39.46 -131.77,78.72zm4172.63 -7633.31c-11.11,154.11 250.94,379.62 381.24,414.65 115.12,30.94 203.19,28.14 320.27,72.95 88.28,33.78 212.05,108.43 312.34,97.96 1.81,-79.48 -194.23,-736.63 -228.86,-787.8 -149.72,-15.7 -687.71,136.02 -784.99,202.24zm9520.07 6715.94c109.19,63.68 711.31,150.81 872.91,151.4 -17.3,-93.24 -111.87,-300.87 -150.72,-403.57 -56.47,-149.31 -90.79,-297.61 -219.26,-339 -54.96,-17.7 -198.19,-33.43 -257.59,-13.99 -61.54,20.14 -87.28,86.5 -116.29,163.19 -34.46,91.08 -132.25,348.97 -129.04,441.96zm-12402.19 292.04c17.33,126.7 250.91,1118.71 301.3,1168.39 96.96,-47.79 114.94,-471.87 144.41,-641.88 45.81,-264.21 143.23,-510.08 163.59,-639.46 -98.29,4 -548.98,77.53 -609.3,112.95zm11031.24 3546.33c6.89,-189.66 4.07,-653.38 -68.23,-799.28 -46.64,-94.11 -139.11,-170.39 -200.28,-231.71 -76.26,-76.45 -142.43,-152.17 -218.32,-224.88 -36.69,58.26 -122.75,268.07 -136.32,351.73 -21.17,130.53 53.29,182.33 171.25,335.8 66.95,87.1 394.07,534.73 451.9,568.33zm-10112.25 -8824.41c128.31,52.24 885.5,-570.22 1002.48,-686.27 -57.29,-89.65 -157.11,-358.22 -232.72,-390.08 -98.29,-41.41 -206.62,217.15 -276.43,329.34 -80.47,129.31 -170.48,251.58 -260.36,361.87 -45.53,55.87 -260.51,301.51 -232.97,385.14zm-411.17 855.37c-202.44,-58.18 -880.95,-440.15 -1027.21,-435.54 13.87,54.12 250.58,296.23 313.27,362.81 110.69,117.57 220.96,234.48 333.68,351.93 426.19,444.08 375.47,457.96 380.52,67.65 1.49,-115.07 1.45,-231.79 -0.26,-346.85zm2043.41 -1710.12c312.86,395.49 364.88,470.96 882.25,441.3 -51.67,-132.11 -260.61,-453.73 -359.05,-586.12 -49.57,-66.67 -102.29,-123.19 -142.84,-183.37 -19.5,8.65 -357.95,291.73 -380.36,328.19zm-180.26 -167.64c42.46,-13.89 366.01,-282.92 390.96,-318.28 59.5,-84.35 -23.93,-177.07 -64,-234.71 -77.76,-111.86 -117.22,-86.41 -260.52,-50.72 -92.41,23.02 -185.99,47.78 -279.95,74.59 -93.72,26.74 -227.3,51.7 -141.63,162.94l355.14 366.19zm-2613.26 5615.52c-4.35,55.2 49.32,204.54 67.94,271.6 32.44,116.88 60.75,153.61 192.45,116.78 179.71,-50.26 367.66,-96.03 551.12,-145.3 -44.79,-116.68 -141.4,-292.02 -280.58,-307.91 -146.8,-16.76 -431.23,4.27 -530.93,64.83zm6530.38 4946.57c42.21,-273.7 -18.34,-336.4 -183.94,-439.82 -269.03,-168.02 -288.53,-171.83 -431.09,-37.36 -181.23,170.95 -89.25,271.33 109.59,346.15 72.56,27.3 449.6,136.45 505.44,131.03zm-1458.72 -10086.87c65.32,-1.1 447.1,-158.64 527.25,-191.79 268.14,-110.88 292.9,-95.98 260.65,-429.67 -55.08,10.21 -207.51,87.29 -271,114.92 -658.56,286.57 -668.58,197.42 -516.9,506.54zm6438.32 5762.92c-165.6,47.92 -200.23,95.52 -247.46,380.3 -12.37,74.56 -42.38,223.83 12.18,276.05 79.91,76.48 185.06,7.95 226.78,-35.37 42.7,-44.34 360.96,-548.36 288.1,-617.46 -51.36,-48.71 -220.23,-20.7 -279.6,-3.53zm-10517.75 -4963.4c-9.57,226.02 -35.28,405.97 122.95,504.91 193.89,121.23 282.46,138.33 407.7,-23.18 219.05,-282.48 151.48,-218.09 -304.33,-397.14 -62.82,-24.67 -162.74,-72.14 -226.31,-84.59zm11757.8 5797.56c44.72,-17.06 555.1,-549.82 432.26,-623.5 -76.23,-45.73 -537.38,-87.63 -598.49,-84.56l166.22 708.06zm-11878.05 1984.3c45.99,50.02 747.47,331.66 825.53,138.85 31.28,-77.26 -208.81,-364.16 -264.33,-415.19l-561.2 276.34zm703.06 -7871.05c54.69,45.25 196.4,86.47 292.12,63.12 85.69,-20.9 162.81,-103.95 218.3,-161.14 44.57,-45.94 126.53,-148.1 167.55,-213.64 59.11,-94.44 97,-163.3 40.53,-284.4 -91.39,-3.35 -321.58,207.57 -390.61,264.41l-266.79 228.56c-35.21,33.53 -56.99,39.86 -61.11,103.1zm69.66 6181.17c-88.71,22.35 -319.05,139.68 -409.08,184.79 -184.24,92.32 -300.73,99.97 -148.07,313.08 56.32,78.63 86.92,96.03 197.55,53.13 124.2,-48.16 321.07,-119.49 351.98,-258.35 15.83,-71.11 10.16,-214.68 7.62,-292.66zm6480.24 3252.13c-22.78,219.93 -30.74,500.58 -21.87,722.81 22.59,-12.13 14.8,-5.24 36.53,-35.26l234.12 -375.56c60.41,-101.33 216.65,-340.28 249.13,-442.71l-497.9 130.72zm641.76 -424.74c10.26,-108.11 -135.39,-295.35 -204.33,-320.45 -149.76,-54.51 -311.69,105.7 -358.19,176.46 -37.29,56.75 -59.57,124.73 -48.94,210.04 12.15,97.52 99.17,67.99 179.87,47.97 94.76,-23.51 376.08,-76.96 431.6,-114.02zm-2255.19 -10446.37c43.22,-97.84 32.11,-334.66 12.59,-455.97 -17.04,-105.86 -56.49,-82.46 -151.77,-51.05 -64.29,21.2 -123.09,47.29 -175.58,79.12 -378.04,229.19 196.61,448.74 314.76,427.9zm-5865.01 8759.3c-6.51,89.46 73.18,192.7 119.98,237.14 111.27,105.66 438.82,-137.28 448.56,-211.1 10.29,-77.96 -81.8,-195.41 -121.95,-237.87 -118.36,-4.43 -370.94,148.69 -446.6,211.83zm2158.81 -7110.22c49.77,-71.37 229.11,-489.5 202.48,-644.34 -12.96,-75.35 -66.11,-157.54 -130.42,-163.74 -72.83,-7.03 -224.04,176.56 -195.04,360.98 14.09,89.63 91.64,378.39 122.98,447.11zm5956.85 -1220.02c71.42,15.86 230.98,18.04 314.61,14.67 115.9,-4.67 172.22,-26.92 226.58,-101.1 43.75,-59.7 193.18,-372.92 214.48,-457 -92.41,29.97 -734.62,494.1 -755.68,543.44zm3599.48 5776.43c37.14,-49.98 239.81,-498.39 253.8,-564.55 -85.65,-6.39 -189.76,-4.04 -276.09,-0.07 -111.46,5.12 -122.67,39.78 -126.38,149.34 -4.72,139.06 -28.02,423.38 148.68,415.28zm-1606.04 -4581.15c-263.38,101.73 -536.87,561.43 -143.81,420.15 80.7,-29.01 284.11,-127.29 330.68,-177.77 70.24,-76.14 -59.01,-291.76 -186.87,-242.37zm-10090.79 6452.81c-105.46,35.95 -264.95,83.57 -272.11,190.75 -3.08,46.06 81.33,266.08 223.83,211.49 65.97,-25.27 272.33,-113.63 273.1,-186.9 0,-0.04 -76.21,-266.01 -224.82,-215.35zm-897.17 -3001.67c-2.74,57.05 33.05,263.7 137.66,299.07 102.2,34.56 308.25,24.43 426.22,24.17 -18.92,-60.71 -148.74,-259.44 -183.5,-291.45 -79.21,-72.94 -280.39,-90.35 -380.38,-31.79zm1952.98 3826.24c9.94,78.54 105.34,237.69 145.55,289.9 83.72,108.73 227.67,-29.53 255.6,-107.3 40.2,-111.96 -5.71,-292.96 -99.46,-313.82 -87.04,-19.38 -258.42,88.1 -301.69,131.22zm149.51 -5586.84c18.99,38.67 32.11,42.71 84.5,62.02l330.86 103.71c33.75,-64.47 77.79,-140.45 113.27,-215.11 38.08,-80.13 88.69,-150.22 114.93,-232.66 -108.97,19.73 -588.25,201.46 -643.56,282.04zm-58.21 6322.17c100.93,26.12 406.2,181.53 497.13,129.72 56.26,-51.52 -72.83,-377.34 -114.79,-420.97 -74.92,17.28 -353.73,239.88 -382.35,291.25zm4459.07 -8875.61c-116.46,81.93 43.72,683.11 234.7,490.58 35.57,-35.86 92.09,-354.98 -93.77,-453.44 -34.69,-18.38 -108.27,-60.12 -140.92,-37.15zm-161.19 -669.9c12.31,49.79 33.07,108.12 45.65,164.74 10.04,45.17 21.9,162.22 35.1,193.33 28.66,67.5 268.26,141.58 319.35,83.47 171.17,-194.68 -260.72,-418.87 -400.11,-441.54zm4818.63 3006.58c82.13,14.18 255.01,-55.99 319.27,-86.74 -5.92,-112.55 -274.2,-294.32 -325.07,-312.39 -216.16,-76.78 -80.32,299.11 5.8,399.13zm-10462.68 1257.95c-97.54,-89.77 -701.24,-93.39 -442.81,139.57 48.12,43.37 175.15,149.7 275.69,97.9 42.55,-21.93 161.71,-165.25 167.12,-237.46zm1728.19 -2704.54c40.04,41.65 325.42,174.39 401.96,147.73 5.77,-90.75 -93.76,-431.04 -134.98,-493.82 -50.26,34.82 -246.16,278.08 -266.97,346.09zm5659.94 -1434.8c-0,72.45 -10.25,298.54 31.46,326.57 99.85,21.01 342.7,-42.98 403.18,-98.01 -25.89,-97.75 -373.01,-279.12 -434.28,-296.16l-0.36 67.61zm-816.71 335.99c-77.61,77.88 35.18,242.25 81.59,275.5 286.23,205.04 528.28,-13.76 55.4,-245.74 -42.28,-20.74 -103.98,-62.89 -136.99,-29.77z"/>
  <path class="fil1" d="M9485.77 10573.12c-50.33,0 -92.26,-17.38 -125.81,-52.12 -33.55,-34.75 -50.32,-78.48 -50.32,-131.2l0 -1829.69 64.7 21.57 -776.45 992.13 -17.98 -46.73 1268.92 0c47.93,0 88.07,16.18 120.42,48.53 32.35,32.35 48.53,72.49 48.53,120.42 0,45.53 -16.18,83.88 -48.53,115.03 -32.35,31.15 -72.49,46.73 -120.42,46.73l-1516.96 0c-43.13,0 -83.87,-17.37 -122.22,-52.12 -38.34,-34.75 -57.51,-76.09 -57.51,-124.02 0,-45.53 15.58,-86.27 46.73,-122.22l1143.11 -1430.68c16.78,-23.97 38.34,-41.94 64.71,-53.92 26.36,-11.98 53.92,-17.98 82.67,-17.98 52.72,0 95.86,17.38 129.41,52.12 33.55,34.75 50.32,78.48 50.32,131.21l0 2149.62c0,52.72 -17.97,96.46 -53.92,131.2 -35.95,34.75 -79.08,52.12 -129.41,52.12zm1865.64 35.95c-201.3,0 -371.45,-55.72 -510.44,-167.15 -138.99,-111.44 -243.84,-264.81 -314.54,-460.12 -70.7,-195.31 -106.04,-417.58 -106.04,-666.81 0,-251.63 35.35,-475.1 106.04,-670.41 70.7,-195.31 175.54,-348.08 314.54,-458.32 138.99,-110.24 309.14,-165.36 510.44,-165.36 201.3,0 370.85,55.12 508.65,165.36 137.79,110.24 242.64,263.01 314.53,458.32 71.9,195.31 107.84,418.78 107.84,670.41 0,249.23 -35.94,471.5 -107.84,666.81 -71.89,195.31 -176.74,348.68 -314.53,460.12 -137.8,111.43 -307.35,167.15 -508.65,167.15zm0 -363.06c112.64,0 209.09,-35.95 289.37,-107.84 80.28,-71.9 142.59,-177.34 186.92,-316.33 44.34,-138.99 66.5,-307.95 66.5,-506.85 0,-201.3 -22.17,-371.45 -66.5,-510.45 -44.33,-138.99 -106.64,-244.44 -186.92,-316.33 -80.28,-71.89 -176.74,-107.84 -289.37,-107.84 -112.63,0 -209.69,35.95 -291.17,107.84 -81.48,71.9 -143.79,177.34 -186.92,316.33 -43.13,138.99 -64.7,309.14 -64.7,510.45 0,198.9 21.57,367.86 64.7,506.85 43.14,138.99 105.44,244.44 186.92,316.33 81.48,71.89 178.53,107.84 291.17,107.84zm2681.63 327.12c-50.33,0 -92.26,-17.38 -125.81,-52.12 -33.55,-34.75 -50.32,-78.48 -50.32,-131.2l0 -1829.69 64.7 21.57 -776.45 992.13 -17.98 -46.73 1268.92 0c47.93,0 88.07,16.18 120.42,48.53 32.35,32.35 48.53,72.49 48.53,120.42 0,45.53 -16.18,83.88 -48.53,115.03 -32.35,31.15 -72.49,46.73 -120.42,46.73l-1516.96 0c-43.13,0 -83.87,-17.37 -122.22,-52.12 -38.34,-34.75 -57.51,-76.09 -57.51,-124.02 0,-45.53 15.58,-86.27 46.73,-122.22l1143.11 -1430.68c16.78,-23.97 38.34,-41.94 64.71,-53.92 26.36,-11.98 53.92,-17.98 82.67,-17.98 52.72,0 95.86,17.38 129.41,52.12 33.55,34.75 50.32,78.48 50.32,131.21l0 2149.62c0,52.72 -17.97,96.46 -53.92,131.2 -35.95,34.75 -79.08,52.12 -129.41,52.12z"/>
  <path class="fil2" d="M8444.99 10723.54c47.25,0 83.07,11.56 107.47,34.67 24.4,23.11 36.59,56.75 36.59,100.92 0,23.11 -5.52,44.04 -16.56,62.79 -11.04,18.74 -27.22,33.51 -48.53,44.29 -21.31,10.79 -47.89,16.43 -79.73,16.95l1.54 -28.51c16.95,0 35.31,2.31 55.08,6.93 19.77,4.62 38.39,12.58 55.85,23.88 17.46,11.3 31.84,26.58 43.14,45.84 11.3,19.26 16.95,43.27 16.95,72.03 0,31.33 -5.14,57.39 -15.41,78.19 -10.27,20.8 -23.88,37.11 -40.83,48.92 -16.95,11.81 -35.57,20.16 -55.85,25.04 -20.29,4.88 -40.19,7.32 -59.71,7.32l-197.22 0c-10.78,0 -20.03,-3.72 -27.73,-11.17 -7.7,-7.45 -11.56,-16.82 -11.56,-28.12l0 -460.68c0,-11.3 3.85,-20.67 11.56,-28.12 7.7,-7.44 16.95,-11.17 27.73,-11.17l197.22 0zm-10.78 75.5l-151.77 0 9.25 -12.33 0 165.63 -8.48 -8.47 152.53 0c18.49,-0.52 34.8,-6.81 48.92,-18.88 14.12,-12.07 21.18,-29.92 21.18,-53.54 0,-24.14 -6.42,-42.24 -19.26,-54.31 -12.84,-12.07 -30.3,-18.1 -52.38,-18.1zm5.39 220.33l-153.3 0 5.39 -5.39 0 181.81 -6.16 -6.93 158.7 0c26.71,0 48.27,-7.06 64.71,-21.18 16.43,-14.12 24.65,-35.57 24.65,-64.33 0,-24.14 -4.88,-42.11 -14.64,-53.93 -9.76,-11.81 -21.83,-19.77 -36.21,-23.88 -14.38,-4.11 -28.76,-6.16 -43.14,-6.16z"/>
  <path class="fil2" d="M8800.64 11262.8c-12.32,0 -23.11,-3.72 -32.35,-11.17 -9.25,-7.45 -13.87,-16.82 -13.87,-28.12l0 -460.68c0,-11.3 3.85,-20.67 11.56,-28.12 7.7,-7.44 16.95,-11.17 27.73,-11.17l217.24 0c27.74,0 53.16,6.81 76.27,20.42 23.11,13.61 41.73,32.35 55.85,56.24 14.12,23.88 21.18,51.23 21.18,82.04 0,20.54 -4.11,40.19 -12.32,58.93 -8.22,18.75 -19.26,35.31 -33.13,49.69 -13.87,14.38 -29.53,25.16 -46.99,32.36l-8.47 -14.64c15.92,5.65 29.79,13.74 41.6,24.27 11.81,10.53 21.19,22.86 28.12,36.98 6.93,14.12 10.66,30.17 11.17,48.15 1.54,15.92 2.95,29.15 4.24,39.68 1.28,10.53 3.21,19.13 5.78,25.81 2.57,6.68 7.19,11.81 13.87,15.41 9.24,5.13 15.02,12.84 17.33,23.11 2.31,10.27 0.13,19.52 -6.55,27.74 -4.62,6.16 -10.4,10.14 -17.33,11.94 -6.93,1.8 -14,2.05 -21.18,0.77 -7.19,-1.28 -13.35,-3.21 -18.49,-5.78 -8.22,-5.13 -16.56,-12.45 -25.04,-21.96 -8.48,-9.5 -15.28,-22.73 -20.42,-39.67 -5.13,-16.95 -7.7,-39.29 -7.7,-67.02 0,-12.84 -2.05,-23.88 -6.16,-33.13 -4.11,-9.24 -9.76,-16.82 -16.95,-22.73 -7.19,-5.91 -15.66,-10.27 -25.42,-13.1 -9.76,-2.83 -20.55,-4.24 -32.36,-4.24l-163.32 0 10.79 -15.41 0 184.12c0,11.3 -3.08,20.67 -9.24,28.12 -6.16,7.45 -14.64,11.17 -25.42,11.17zm24.65 -275.02l184.12 0c11.81,-0.52 23.24,-5.26 34.28,-14.25 11.04,-8.99 20.03,-21.18 26.96,-36.59 6.93,-15.41 10.4,-32.87 10.4,-52.38 0,-24.65 -7.32,-45.32 -21.96,-62.02 -14.64,-16.69 -31.97,-25.04 -52,-25.04l-180.27 0 8.47 -20.03 0 226.49 -10.01 -16.18z"/>
  <path class="fil2" d="M9792.89 10993.17c0,39.03 -6.42,75.37 -19.26,109.01 -12.84,33.64 -30.94,63.04 -54.31,88.21 -23.37,25.16 -50.97,44.81 -82.81,58.93 -31.84,14.12 -66.77,21.18 -104.77,21.18 -37.49,0 -72.16,-7.06 -104,-21.18 -31.84,-14.12 -59.45,-33.77 -82.82,-58.93 -23.37,-25.17 -41.34,-54.57 -53.93,-88.21 -12.58,-33.64 -18.88,-69.98 -18.88,-109.01 0,-39.03 6.29,-75.37 18.88,-109.01 12.58,-33.64 30.56,-63.04 53.93,-88.21 23.37,-25.17 50.97,-44.81 82.82,-58.93 31.84,-14.12 66.51,-21.18 104,-21.18 38.01,0 72.93,7.06 104.77,21.18 31.84,14.12 59.44,33.77 82.81,58.93 23.37,25.16 41.47,54.57 54.31,88.21 12.84,33.64 19.26,69.98 19.26,109.01zm-83.2 0c0,-38.01 -7.58,-72.16 -22.73,-102.46 -15.15,-30.3 -36.08,-54.18 -62.79,-71.64 -26.71,-17.46 -57.52,-26.19 -92.44,-26.19 -34.41,0 -64.97,8.73 -91.68,26.19 -26.71,17.46 -47.5,41.21 -62.4,71.26 -14.89,30.04 -22.34,64.32 -22.34,102.85 0,38.01 7.45,72.16 22.34,102.46 14.89,30.3 35.69,54.18 62.4,71.64 26.71,17.46 57.26,26.19 91.68,26.19 34.92,0 65.74,-8.73 92.44,-26.19 26.71,-17.46 47.64,-41.34 62.79,-71.64 15.15,-30.3 22.73,-64.45 22.73,-102.46z"/>
  <path class="fil2" d="M10293.25 11263.57c-11.81,0 -21.31,-4.88 -28.5,-14.64l-191.82 -247.29 59.32 -60.09 195.67 254.99c6.16,8.22 9.24,17.21 9.24,26.96 0,12.32 -4.62,22.08 -13.87,29.27 -9.24,7.19 -19.26,10.79 -30.04,10.79zm3.85 -542.34c10.27,0 18.75,4.11 25.42,12.32 6.68,8.22 10.01,16.69 10.01,25.42 0,9.24 -3.85,17.72 -11.55,25.42l-332.03 315.08 -4.62 -90.91 281.96 -272.71c9.24,-9.76 19.51,-14.64 30.81,-14.64zm-339.73 541.57c-11.81,0 -21.44,-3.72 -28.89,-11.17 -7.45,-7.45 -11.17,-16.82 -11.17,-28.12l0 -460.68c0,-11.3 3.85,-20.67 11.56,-28.12 7.7,-7.44 17.72,-11.17 30.04,-11.17 11.81,0 21.31,3.73 28.5,11.17 7.19,7.45 10.79,16.82 10.79,28.12l0 460.68c-0.51,11.3 -4.36,20.67 -11.56,28.12 -7.19,7.45 -16.95,11.17 -29.27,11.17z"/>
  <path class="fil2" d="M10526.74 10723.54l266.55 0c10.79,0 19.9,3.6 27.35,10.79 7.45,7.19 11.17,16.18 11.17,26.96 0,10.78 -3.73,19.51 -11.17,26.19 -7.44,6.68 -16.56,10.01 -27.35,10.01l-232.65 0 7.7 -13.1 0 172.56 -6.93 -7.71 197.22 0c10.79,0 19.9,3.6 27.35,10.79 7.45,7.19 11.17,16.44 11.17,27.74 0,10.79 -3.73,19.51 -11.17,26.19 -7.44,6.68 -16.56,10.01 -27.35,10.01l-195.67 0 5.39 -6.93 0 177.96 -5.39 -6.16 230.34 0c10.79,0 19.9,3.72 27.35,11.17 7.45,7.45 11.17,16.05 11.17,25.81 0,10.79 -3.73,19.65 -11.17,26.58 -7.44,6.93 -16.56,10.4 -27.35,10.4l-266.55 0c-10.78,0 -20.03,-3.72 -27.73,-11.17 -7.7,-7.45 -11.56,-16.82 -11.56,-28.12l0 -460.68c0,-11.3 3.85,-20.67 11.56,-28.12 7.7,-7.44 16.95,-11.17 27.73,-11.17z"/>
  <path class="fil2" d="M11364.59 10723.54c10.27,0 18.62,3.47 25.04,10.4 6.42,6.93 9.63,15.53 9.63,25.81l0 463.76c0,11.3 -3.72,20.67 -11.17,28.12 -7.45,7.45 -16.82,11.17 -28.12,11.17 -5.13,0 -10.66,-1.03 -16.56,-3.08 -5.91,-2.05 -10.4,-4.88 -13.48,-8.48l-316.62 -410.61 17.72 -10.01 0 396.74c0,9.76 -3.34,18.1 -10.01,25.04 -6.68,6.93 -15.15,10.4 -25.42,10.4 -10.79,0 -19.39,-3.47 -25.81,-10.4 -6.42,-6.93 -9.63,-15.28 -9.63,-25.04l0 -464.53c0,-11.81 3.85,-21.31 11.56,-28.5 7.7,-7.19 16.95,-10.79 27.73,-10.79 5.65,0 11.69,1.15 18.1,3.47 6.42,2.31 11.17,5.78 14.25,10.4l308.92 402.14 -11.55 10.79 0 -390.58c0,-10.27 3.34,-18.88 10.01,-25.81 6.68,-6.93 15.15,-10.4 25.42,-10.4z"/>
  <path class="fil1" d="M11564.96 10722.76c6.16,0 12.58,1.54 19.26,4.62 6.68,3.08 11.81,7.45 15.41,13.1l195.68 298.13 -33.13 -1.54 199.53 -296.59c8.22,-11.81 18.75,-17.72 31.59,-17.72 10.27,0 19.38,3.73 27.35,11.17 7.96,7.44 11.94,16.82 11.94,28.12l0 461.45c0,11.3 -3.6,20.67 -10.79,28.12 -7.19,7.45 -16.69,11.17 -28.5,11.17 -12.33,0 -22.21,-3.72 -29.66,-11.17 -7.45,-7.45 -11.17,-16.82 -11.17,-28.12l0 -390.58 24.65 5.39 -169.48 258.08c-3.59,4.62 -8.22,8.6 -13.87,11.94 -5.65,3.34 -11.56,4.75 -17.72,4.24 -5.65,0.52 -11.43,-0.9 -17.33,-4.24 -5.91,-3.34 -10.66,-7.32 -14.25,-11.94l-163.32 -254.22 18.49 -30.82 0 412.15c0,11.3 -3.47,20.67 -10.4,28.12 -6.93,7.45 -16.05,11.17 -27.35,11.17 -10.79,0 -19.65,-3.72 -26.58,-11.17 -6.93,-7.45 -10.4,-16.82 -10.4,-28.12l0 -461.45c0,-10.78 3.98,-20.03 11.94,-27.73 7.96,-7.7 17.33,-11.56 28.12,-11.56z"/>
  <path class="fil1" d="M12247.45 11223.51c-0.51,11.3 -4.75,20.67 -12.71,28.12 -7.96,7.45 -17.33,11.17 -28.12,11.17 -11.81,0 -21.44,-3.72 -28.89,-11.17 -7.45,-7.45 -11.17,-16.82 -11.17,-28.12l0 -460.68c0,-11.3 3.85,-20.67 11.56,-28.12 7.7,-7.44 17.72,-11.17 30.04,-11.17 10.27,0 19.39,3.73 27.35,11.17 7.96,7.45 11.94,16.82 11.94,28.12l0 460.68z"/>
  <path class="fil1" d="M12438.5 11262.8c-12.32,0 -23.11,-3.72 -32.35,-11.17 -9.25,-7.45 -13.87,-16.82 -13.87,-28.12l0 -460.68c0,-11.3 3.85,-20.67 11.56,-28.12 7.7,-7.44 16.95,-11.17 27.73,-11.17l217.24 0c27.74,0 53.16,6.81 76.27,20.42 23.11,13.61 41.73,32.35 55.85,56.24 14.12,23.88 21.18,51.23 21.18,82.04 0,20.54 -4.11,40.19 -12.32,58.93 -8.22,18.75 -19.26,35.31 -33.13,49.69 -13.87,14.38 -29.53,25.16 -46.99,32.36l-8.47 -14.64c15.92,5.65 29.79,13.74 41.6,24.27 11.81,10.53 21.19,22.86 28.12,36.98 6.93,14.12 10.66,30.17 11.17,48.15 1.54,15.92 2.95,29.15 4.24,39.68 1.28,10.53 3.21,19.13 5.78,25.81 2.57,6.68 7.19,11.81 13.87,15.41 9.24,5.13 15.02,12.84 17.33,23.11 2.31,10.27 0.13,19.52 -6.55,27.74 -4.62,6.16 -10.4,10.14 -17.33,11.94 -6.93,1.8 -14,2.05 -21.18,0.77 -7.19,-1.28 -13.35,-3.21 -18.49,-5.78 -8.22,-5.13 -16.56,-12.45 -25.04,-21.96 -8.48,-9.5 -15.28,-22.73 -20.42,-39.67 -5.13,-16.95 -7.7,-39.29 -7.7,-67.02 0,-12.84 -2.05,-23.88 -6.16,-33.13 -4.11,-9.24 -9.76,-16.82 -16.95,-22.73 -7.19,-5.91 -15.66,-10.27 -25.42,-13.1 -9.76,-2.83 -20.55,-4.24 -32.36,-4.24l-163.32 0 10.79 -15.41 0 184.12c0,11.3 -3.08,20.67 -9.24,28.12 -6.16,7.45 -14.64,11.17 -25.42,11.17zm24.65 -275.02l184.12 0c11.81,-0.52 23.24,-5.26 34.28,-14.25 11.04,-8.99 20.03,-21.18 26.96,-36.59 6.93,-15.41 10.4,-32.87 10.4,-52.38 0,-24.65 -7.32,-45.32 -21.96,-62.02 -14.64,-16.69 -31.97,-25.04 -52,-25.04l-180.27 0 8.47 -20.03 0 226.49 -10.01 -16.18z"/>
  <path class="fil1" d="M12994.85 11262.8c-12.32,0 -23.11,-3.72 -32.35,-11.17 -9.25,-7.45 -13.87,-16.82 -13.87,-28.12l0 -460.68c0,-11.3 3.85,-20.67 11.56,-28.12 7.7,-7.44 16.95,-11.17 27.73,-11.17l217.24 0c27.74,0 53.16,6.81 76.27,20.42 23.11,13.61 41.73,32.35 55.85,56.24 14.12,23.88 21.18,51.23 21.18,82.04 0,20.54 -4.11,40.19 -12.32,58.93 -8.22,18.75 -19.26,35.31 -33.13,49.69 -13.87,14.38 -29.53,25.16 -46.99,32.36l-8.47 -14.64c15.92,5.65 29.79,13.74 41.6,24.27 11.81,10.53 21.19,22.86 28.12,36.98 6.93,14.12 10.66,30.17 11.17,48.15 1.54,15.92 2.95,29.15 4.24,39.68 1.28,10.53 3.21,19.13 5.78,25.81 2.57,6.68 7.19,11.81 13.87,15.41 9.24,5.13 15.02,12.84 17.33,23.11 2.31,10.27 0.13,19.52 -6.55,27.74 -4.62,6.16 -10.4,10.14 -17.33,11.94 -6.93,1.8 -14,2.05 -21.18,0.77 -7.19,-1.28 -13.35,-3.21 -18.49,-5.78 -8.22,-5.13 -16.56,-12.45 -25.04,-21.96 -8.48,-9.5 -15.28,-22.73 -20.42,-39.67 -5.13,-16.95 -7.7,-39.29 -7.7,-67.02 0,-12.84 -2.05,-23.88 -6.16,-33.13 -4.11,-9.24 -9.76,-16.82 -16.95,-22.73 -7.19,-5.91 -15.66,-10.27 -25.42,-13.1 -9.76,-2.83 -20.55,-4.24 -32.36,-4.24l-163.32 0 10.79 -15.41 0 184.12c0,11.3 -3.08,20.67 -9.24,28.12 -6.16,7.45 -14.64,11.17 -25.42,11.17zm24.65 -275.02l184.12 0c11.81,-0.52 23.24,-5.26 34.28,-14.25 11.04,-8.99 20.03,-21.18 26.96,-36.59 6.93,-15.41 10.4,-32.87 10.4,-52.38 0,-24.65 -7.32,-45.32 -21.96,-62.02 -14.64,-16.69 -31.97,-25.04 -52,-25.04l-180.27 0 8.47 -20.03 0 226.49 -10.01 -16.18z"/>
  <path class="fil1" d="M13987.09 10993.17c0,39.03 -6.42,75.37 -19.26,109.01 -12.84,33.64 -30.94,63.04 -54.31,88.21 -23.37,25.16 -50.97,44.81 -82.81,58.93 -31.84,14.12 -66.77,21.18 -104.77,21.18 -37.49,0 -72.16,-7.06 -104,-21.18 -31.84,-14.12 -59.45,-33.77 -82.82,-58.93 -23.37,-25.17 -41.34,-54.57 -53.93,-88.21 -12.58,-33.64 -18.88,-69.98 -18.88,-109.01 0,-39.03 6.29,-75.37 18.88,-109.01 12.58,-33.64 30.56,-63.04 53.93,-88.21 23.37,-25.17 50.97,-44.81 82.82,-58.93 31.84,-14.12 66.51,-21.18 104,-21.18 38.01,0 72.93,7.06 104.77,21.18 31.84,14.12 59.44,33.77 82.81,58.93 23.37,25.16 41.47,54.57 54.31,88.21 12.84,33.64 19.26,69.98 19.26,109.01zm-83.2 0c0,-38.01 -7.58,-72.16 -22.73,-102.46 -15.15,-30.3 -36.08,-54.18 -62.79,-71.64 -26.71,-17.46 -57.52,-26.19 -92.44,-26.19 -34.41,0 -64.97,8.73 -91.68,26.19 -26.71,17.46 -47.5,41.21 -62.4,71.26 -14.89,30.04 -22.34,64.32 -22.34,102.85 0,38.01 7.45,72.16 22.34,102.46 14.89,30.3 35.69,54.18 62.4,71.64 26.71,17.46 57.26,26.19 91.68,26.19 34.92,0 65.74,-8.73 92.44,-26.19 26.71,-17.46 47.64,-41.34 62.79,-71.64 15.15,-30.3 22.73,-64.45 22.73,-102.46z"/>
  <path class="fil1" d="M14150.41 11262.8c-12.32,0 -23.11,-3.72 -32.35,-11.17 -9.25,-7.45 -13.87,-16.82 -13.87,-28.12l0 -460.68c0,-11.3 3.85,-20.67 11.56,-28.12 7.7,-7.44 16.95,-11.17 27.73,-11.17l217.24 0c27.74,0 53.16,6.81 76.27,20.42 23.11,13.61 41.73,32.35 55.85,56.24 14.12,23.88 21.18,51.23 21.18,82.04 0,20.54 -4.11,40.19 -12.32,58.93 -8.22,18.75 -19.26,35.31 -33.13,49.69 -13.87,14.38 -29.53,25.16 -46.99,32.36l-8.47 -14.64c15.92,5.65 29.79,13.74 41.6,24.27 11.81,10.53 21.19,22.86 28.12,36.98 6.93,14.12 10.66,30.17 11.17,48.15 1.54,15.92 2.95,29.15 4.24,39.68 1.28,10.53 3.21,19.13 5.78,25.81 2.57,6.68 7.19,11.81 13.87,15.41 9.24,5.13 15.02,12.84 17.33,23.11 2.31,10.27 0.13,19.52 -6.55,27.74 -4.62,6.16 -10.4,10.14 -17.33,11.94 -6.93,1.8 -14,2.05 -21.18,0.77 -7.19,-1.28 -13.35,-3.21 -18.49,-5.78 -8.22,-5.13 -16.56,-12.45 -25.04,-21.96 -8.48,-9.5 -15.28,-22.73 -20.42,-39.67 -5.13,-16.95 -7.7,-39.29 -7.7,-67.02 0,-12.84 -2.05,-23.88 -6.16,-33.13 -4.11,-9.24 -9.76,-16.82 -16.95,-22.73 -7.19,-5.91 -15.66,-10.27 -25.42,-13.1 -9.76,-2.83 -20.55,-4.24 -32.36,-4.24l-163.32 0 10.79 -15.41 0 184.12c0,11.3 -3.08,20.67 -9.24,28.12 -6.16,7.45 -14.64,11.17 -25.42,11.17zm24.65 -275.02l184.12 0c11.81,-0.52 23.24,-5.26 34.28,-14.25 11.04,-8.99 20.03,-21.18 26.96,-36.59 6.93,-15.41 10.4,-32.87 10.4,-52.38 0,-24.65 -7.32,-45.32 -21.96,-62.02 -14.64,-16.69 -31.97,-25.04 -52,-25.04l-180.27 0 8.47 -20.03 0 226.49 -10.01 -16.18z"/>
 </g>
</svg>
