<?xml version="1.0" encoding="UTF-8"?>
<!DOCTYPE svg PUBLIC "-//W3C//DTD SVG 1.1//EN" "http://www.w3.org/Graphics/SVG/1.1/DTD/svg11.dtd">
<!-- Creator: CorelDRAW -->
<svg xmlns:xlink="http://www.w3.org/1999/xlink" xmlns:xodm="http://www.corel.com/coreldraw/odm/2003"
     xmlns="http://www.w3.org/2000/svg" xml:space="preserve" width="174.654mm" height="166.623mm"
     version="1.1"
     style="shape-rendering:geometricPrecision; text-rendering:geometricPrecision; image-rendering:optimizeQuality; fill-rule:evenodd; clip-rule:evenodd"
     viewBox="0 0 3192.48 3045.68">
 <defs>
  <style type="text/css">
   <![CDATA[
    .str0 {stroke:white;stroke-width:127.95;stroke-linecap:round;stroke-miterlimit:22.9256}
    .str1 {stroke:white;stroke-width:64.48;stroke-linecap:round;stroke-miterlimit:22.9256}
    .fil1 {fill:none}
    .fil0 {fill:white}
   ]]>
  </style>
 </defs>
    <g id="Warstwa_x0020_1">
  <metadata id="CorelCorpID_0Corel-Layer"/>
        <g id="_105553304292032">
   <path class="fil0"
         d="M856.47 1599.65c-38.55,-436.39 275.12,-776.93 662.75,-815.75 439.51,-44.02 771.61,277.02 817.14,662.93 18.13,153.69 -23.34,324.22 -98.38,451.42 -45.47,77.08 -64.25,95.25 -123.94,154.39 -28.36,28.1 -2.45,9.3 -46.92,44.12 -18.99,14.87 -32.75,26.38 -51.43,39.33 -94.51,65.54 -219.59,113.52 -343.43,126.42 -428.05,44.6 -782.36,-284.54 -815.78,-662.87zm645.46 -934.44c-442.77,40.6 -816.69,452.99 -763.41,953.89 32.1,301.83 223.06,525.34 433.52,640.17 50.12,27.34 94.02,47.34 149.05,66.43 109.37,37.94 246.38,63.99 374.15,58.69 124.22,-5.15 231.58,-53.69 322.16,-104.71 67.19,-37.85 131.44,-90.64 183.28,-140.35 88.67,-85.02 167.85,-210.53 211.09,-328.46 42.88,-116.99 55.66,-252.45 42.06,-386.23 -27.41,-269.59 -167.24,-440.21 -298.86,-557.61 -157.66,-140.64 -368.97,-227.86 -653.05,-201.81z"/>
            <path class="fil0"
                  d="M1758.7 900.26c-39.7,13.17 -60.97,62.25 -28.01,95.75 15.73,15.98 77.17,36.85 103.51,49.91 137.18,68.03 237.7,185.8 277.09,336.59 19.97,76.44 4.07,237.09 102.38,196.46 67.69,-27.97 28.2,-173.03 11.01,-236.58 -38.85,-143.59 -136.85,-276.05 -256.38,-356.81 -34.69,-23.43 -160.73,-101.55 -209.59,-85.33z"/>
            <path class="fil0"
                  d="M1569.7 876.21c-69.21,39.09 -18.15,142.27 58.94,106.1 69.45,-32.58 16.76,-148.85 -58.94,-106.1z"/>
  </g>
        <path class="fil1 str0"
              d="M63.98 844.27l0 182.43 0 1673.51c0,154.82 126.67,281.49 281.49,281.49l1832.39 0m-2113.88 -2473.85l0 -162.38c0,-154.82 126.67,-281.49 281.49,-281.49l2501.54 0c154.82,0 281.49,126.67 281.49,281.49l0 2354.74c0,154.82 -126.67,281.49 -281.49,281.49l-357.59 0"/>
        <path class="fil1 str1"
              d="M2855.2 446.99c11.01,43.97 2,90.56 -24.6,127.26 -49.71,68.57 -145.6,83.85 -214.17,34.14 -68.57,-49.71 -83.85,-145.6 -34.14,-214.16 49.71,-68.57 145.6,-83.85 214.17,-34.14"/>
 </g>
</svg>
