<?xml version="1.0" encoding="UTF-8"?>
<!DOCTYPE svg PUBLIC "-//W3C//DTD SVG 1.1//EN" "http://www.w3.org/Graphics/SVG/1.1/DTD/svg11.dtd">
<!-- Creator: CorelDRAW 2019 (64-Bit Wersja próbna) -->
<svg xmlns="http://www.w3.org/2000/svg" xml:space="preserve" width="126.37mm" height="184.772mm" version="1.1" style="shape-rendering:geometricPrecision; text-rendering:geometricPrecision; image-rendering:optimizeQuality; fill-rule:evenodd; clip-rule:evenodd"
viewBox="0 0 12624.57 18459.11"
 xmlns:xlink="http://www.w3.org/1999/xlink"
 xmlns:xodm="http://www.corel.com/coreldraw/odm/2003">
 <defs>
  <style type="text/css">
   <![CDATA[
    .fil0 {fill:white}
   ]]>
  </style>
 </defs>
 <g id="Warstwa_x0020_1">
  <metadata id="CorelCorpID_0Corel-Layer"/>
  <g id="_2610014160208">
   <path class="fil0" d="M7123.13 10491.83l0 -4761.53c0,-151.4 -122.67,-274.06 -274.19,-274.06 -151.4,0 -274.06,122.66 -274.06,274.06l0 4899.97c0,88.72 42.81,171.81 115.06,223.22 1023.72,729.36 1634.79,1914.04 1634.79,3169.14 0,2143.88 -1744.21,3888.23 -3888.24,3888.23 -2143.89,0 -3888.23,-1744.35 -3888.23,-3888.23 0,-1255.1 611.21,-2439.78 1634.91,-3169.14 72.11,-51.41 115.07,-134.5 115.07,-223.22l0 -7943.62c0,-1179.04 959.2,-2138.38 2138.25,-2138.38 1179.04,0 2138.39,959.34 2138.39,2138.38l0 1947c0,151.4 122.66,274.2 274.06,274.2 151.53,0 274.19,-122.8 274.19,-274.2l0 -1947c0,-1481.41 -1205.23,-2686.65 -2686.65,-2686.65 -1481.41,0 -2686.65,1205.24 -2686.65,2686.65l0 7805.19c-1098.2,837.24 -1749.83,2146.56 -1749.83,3530.8 0,2446.24 1990.23,4436.49 4436.49,4436.49 2446.39,0 4436.62,-1990.24 4436.62,-4436.49 0,-1384.38 -651.63,-2693.56 -1749.97,-3530.8l-0.01 0zm0 0z"/>
   <path class="fil0" d="M4436.48 16448.73c-499.95,0 -980.33,-151.54 -1389.3,-438.27 -123.94,-87.03 -295.05,-57.04 -381.94,67.02 -86.88,123.94 -56.89,294.9 67.17,381.81 501.65,351.79 1090.89,537.68 1704.07,537.68 1640.12,0 2974.5,-1334.23 2974.5,-2974.37 0,-960.19 -467.83,-1866.58 -1251.29,-2424.84l-498.68 -355.18 0 -8555.95c0,-675.29 -549.24,-1224.53 -1224.53,-1224.53 -675.15,0 -1224.53,549.24 -1224.53,1224.53l0 8555.95 -498.55 355.18c-783.58,558.25 -1251.29,1464.65 -1251.29,2424.84 0,595.16 175.91,1169.9 508.83,1662.24 84.79,125.35 255.19,158.29 380.67,73.52 125.48,-84.79 158.29,-255.19 73.51,-380.67 -271.24,-401.23 -414.74,-869.92 -414.74,-1355.09 0,-783.3 381.8,-1522.81 1021.18,-1978.26l613.6 -437.28c72.24,-51.41 115.2,-134.64 115.2,-223.22l0 -1058.49 1352.39 0.01 0 1058.49c0,88.58 42.82,171.81 115.07,223.22l613.75 437.28c639.37,455.45 1021.03,1194.96 1021.03,1978.26 0,1337.77 -1088.34,2426.12 -2426.11,2426.12zm676.27 -10860.96l-1352.4 0 0 -1546.33 1352.4 0.01 0 1546.32zm-1352.4 548.26l1352.4 0 0 1546.33 -1352.4 0 0 -1546.33zm676.14 -4125.66c372.91,0 676.27,303.35 676.27,676.27l0 806.54 -1352.4 0.01 0 -806.54c0,-372.91 303.35,-676.27 676.14,-676.27l0 -0.01zm-676.14 7766.74l0 -1546.34 1352.4 0.01 0 1546.34 -1352.4 -0.01zm0 0z"/>
   <path class="fil0" d="M12314.33 6131.11c-191.25,0 -295.75,73.38 -310.11,217.45 -41.27,323.2 -103.52,811.33 -864.71,811.33 -623.89,0 -927.24,-316.88 -927.24,-968.78l0 -2092.49c0,-642.89 305.04,-968.92 906.4,-968.92 699.5,0 867.67,425.31 885.55,782.18 7.74,141.11 118.01,218.86 310.11,218.86 196.47,0 310.25,-55.21 310.25,-338 0,-723.03 -625.01,-1227.92 -1519.85,-1227.92 -961.47,0 -1512.97,559.1 -1512.97,1533.8l0 2092.49c0,523.9 149.71,922.88 445.03,1185.81 255.47,227.58 622.34,347.86 1061.02,347.86 898.93,0 1526.75,-513.48 1526.75,-1248.77 0,-287.15 -118.72,-344.89 -310.25,-344.89l0.01 -0.01zm0 0z"/>
   <path class="fil0" d="M9979.48 1782.64c0,-493.76 -401.8,-895.55 -895.55,-895.55 -493.9,0 -895.54,401.8 -895.54,895.55 0,493.76 401.66,895.54 895.54,895.54 493.76,0 895.55,-401.79 895.55,-895.54zm-895.55 347.28c-191.52,0 -347.28,-155.9 -347.28,-347.28 0,-191.53 155.76,-347.29 347.28,-347.29 191.4,0 347.16,155.76 347.16,347.29 0,191.39 -155.76,347.28 -347.16,347.28zm0 0z"/>
  </g>
 </g>
</svg>
