<?xml version="1.0" encoding="UTF-8"?>
<!DOCTYPE svg PUBLIC "-//W3C//DTD SVG 1.1//EN" "http://www.w3.org/Graphics/SVG/1.1/DTD/svg11.dtd">
<!-- Creator: CorelDRAW -->
<svg xmlns="http://www.w3.org/2000/svg" xml:space="preserve" width="194.341mm" height="176.878mm" version="1.1"
     style="shape-rendering:geometricPrecision; text-rendering:geometricPrecision; image-rendering:optimizeQuality; fill-rule:evenodd; clip-rule:evenodd"
     viewBox="0 0 19418.87 17673.97"
     xmlns:xlink="http://www.w3.org/1999/xlink"
     xmlns:xodm="http://www.corel.com/coreldraw/odm/2003">
 <defs>
  <style type="text/css">
   <![CDATA[
    .fil0 {fill:white}
    .fil2 {fill:white}
    .fil1 {fill:white;fill-rule:nonzero}
   ]]>
  </style>
 </defs>
    <g id="Warstwa_x0020_1">
  <metadata id="CorelCorpID_0Corel-Layer"/>
        <path class="fil0"
              d="M12966.69 11192.75c36.69,120.65 125.72,281.53 181.55,410.44 59.12,136.49 118.73,273.59 172.53,418.36 232.85,626.75 542.38,1305.55 10.23,1817.58 -426.05,409.95 -1073.77,397.2 -1508.74,-100.18 -47.43,-54.22 -72.04,-108.14 -110.98,-184.64 -159.47,-313.4 -131.4,-641.56 71.98,-974.45 157.63,-258.02 376.8,-542.36 560.19,-738.28 117.48,-125.5 531.24,-605.39 623.24,-648.83zm-1556.78 1817.85c-35.31,461.46 155.69,772.79 386.76,997.11 272.35,264.39 739.67,394.75 1142.19,284.85 317.38,-86.67 642.7,-321.82 799.41,-681.7 185.33,-425.59 58.89,-806.62 -52.11,-1174.03 -119.33,-395.01 -325.84,-883.05 -503.38,-1253.04 -23.08,-48.12 -90.11,-205.84 -115.96,-235.93 -29.19,-33.99 -83,-45.61 -123.28,-30.75 -35.11,12.97 -64.22,53.59 -97.47,87.85 -32.32,33.33 -63.24,58.94 -93.7,91.54 -418.92,448.32 -1296.33,1311.89 -1342.46,1914.09zm1008.61 873.42c223.75,112.93 573.22,-19.23 692.27,-113.63 169.22,-134.13 396.38,-487.94 288.1,-604.61 -44.95,-48.44 -111.78,-41.8 -148.2,-0.48 -44.69,50.68 -44.79,284.95 -275.74,449.74 -308.55,220.14 -644.79,-36.4 -556.42,268.98z"/>
        <path class="fil0"
              d="M12322.12 9125.74c82.5,108.41 244.16,717.69 266.18,876.95 54.6,394.75 -297.19,656.16 -633.19,570.03 -335.26,-85.94 -513.98,-476.47 -290.09,-793.21 95.51,-135.13 505.76,-566.24 657.11,-653.78zm17.8 -232.58c-45.85,7.89 -185.01,139.9 -229.19,177.73 -78.5,67.21 -148.97,133.52 -222.81,202.07 -131.9,122.47 -298.29,293.15 -401.52,458.83 -260.3,417.74 29.7,950.55 476.91,1022.39 440.07,70.69 863.93,-264.39 798.13,-779.09 -35.97,-281.29 -189.58,-722.47 -303.03,-998.37 -21.86,-53.17 -41.39,-96.84 -118.49,-83.56z"/>
        <path class="fil0"
              d="M14238.54 10187.17c61.22,80.46 181.21,532.65 197.56,650.87 40.52,292.98 -220.58,486.99 -469.94,423.06 -248.84,-63.78 -381.47,-353.62 -215.31,-588.7 70.88,-100.29 375.38,-420.25 487.7,-485.23zm13.21 -172.61c-34.04,5.86 -137.31,103.84 -170.1,131.92 -58.27,49.88 -110.57,99.09 -165.37,149.97 -97.89,90.9 -221.39,217.57 -298.01,340.53 -193.18,310.05 22.04,705.49 353.96,758.81 326.6,52.47 641.2,-196.23 592.35,-578.23 -26.69,-208.77 -140.7,-536.22 -224.89,-740.98 -16.23,-39.46 -30.73,-71.87 -87.94,-62.02z"/>
        <g id="_105553251198304">
   <path class="fil0"
         d="M11160.12 12875.83l0 -2454.71c0,-78.06 -63.23,-141.29 -141.35,-141.29 -78.04,0 -141.29,63.23 -141.29,141.29l0 2526.07c0,45.75 22.09,88.57 59.32,115.08 527.76,376.01 842.78,986.75 842.78,1633.79 0,1105.23 -899.2,2004.49 -2004.49,2004.49 -1105.24,0 -2004.49,-899.27 -2004.49,-2004.49 0,-647.04 315.09,-1257.79 842.84,-1633.79 37.18,-26.51 59.31,-69.33 59.31,-115.08l0 -4095.16c0,-607.84 494.5,-1102.42 1102.34,-1102.42 607.82,0 1102.39,494.57 1102.39,1102.42l0 1003.72c0,78.06 63.25,141.35 141.29,141.35 78.13,0 141.35,-63.29 141.35,-141.35l0 -1003.72c0,-763.72 -621.31,-1385.06 -1385.03,-1385.06 -763.7,0 -1385.06,621.33 -1385.06,1385.06l0 4023.79c-566.15,431.62 -902.07,1106.6 -902.07,1820.24 0,1261.11 1026.04,2287.14 2287.14,2287.14 1261.18,0 2287.2,-1026.03 2287.2,-2287.14 0,-713.69 -335.92,-1388.61 -902.16,-1820.24l-0.01 0 -0.01 0zm-1385.04 3070.97c-257.75,0 -505.4,-78.12 -716.22,-225.93 -63.89,-44.87 -152.11,-29.42 -196.91,34.55 -44.78,63.89 -29.33,152.02 34.63,196.83 258.62,181.37 562.37,277.18 878.49,277.18 845.53,0 1533.44,-687.83 1533.44,-1533.37 0,-495 -241.18,-962.28 -645.09,-1250.07l-257.07 -183.12 0 -4410.83c0,-348.14 -283.17,-631.29 -631.29,-631.29 -348.07,0 -631.28,283.15 -631.28,631.29l0 4410.83 -257.01 183.12c-403.96,287.79 -645.09,755.07 -645.09,1250.07 0,306.82 90.68,603.13 262.31,856.94 43.71,64.62 131.56,81.61 196.26,37.89 64.68,-43.71 81.6,-131.56 37.89,-196.24 -139.83,-206.84 -213.82,-448.47 -213.82,-698.59 0,-403.82 196.83,-785.06 526.45,-1019.85l316.33 -225.43c37.23,-26.51 59.37,-69.42 59.37,-115.07l0 -545.69 697.21 0.01 0 545.69c0,45.65 22.06,88.56 59.31,115.07l316.41 225.42c329.61,234.81 526.36,616.04 526.36,1019.86 0,689.65 -561.07,1250.73 -1250.72,1250.73zm348.64 -5599.15l-697.22 0 0 -797.16 697.22 0 0 797.16zm-697.22 282.65l697.22 0 0 797.18 -697.22 0 0 -797.18zm348.59 -2126.9c192.25,0 348.64,156.4 348.64,348.65l0 415.79 -697.21 0 0 -415.79c0,-192.25 156.4,-348.64 348.58,-348.64l0 -0.01zm-348.59 4003.97l0 -797.2 697.22 0.01 0 797.2 -697.22 -0.01z"/>
            <path class="fil0"
                  d="M10026.62 5756.69c49.43,331.82 318.24,82.41 859.93,202.87 689.06,153.25 1224.6,648.72 1431.13,1355.19 73.35,250.93 50.59,384.69 284.91,349.78 302.6,-45.09 11.34,-1092.49 -761.45,-1664.85 -768.47,-569.13 -1860.07,-548.65 -1814.51,-242.99z"/>
            <path class="fil0"
                  d="M10156.77 6630.15c57.81,387.98 398.81,-29.41 941.51,372.53 551.67,408.57 244.06,849.63 630.83,791.99 376.57,-56.11 -140.07,-1526.76 -1448.45,-1331.8 -67.9,10.12 -134.02,99.39 -123.89,167.28z"/>
  </g>
        <path class="fil1"
              d="M8032.58 15940.85c8.66,-47.14 -22.24,-90.44 -69.09,-96.72 -582.56,-78.28 -1111.01,-362.63 -1487.99,-800.69 -885.91,-1029.46 -731.35,-2621.46 345.83,-3559.18 458.84,-399.44 1038.18,-632.03 1631.28,-654.9 47.63,-1.84 86.67,-41.86 87.23,-89.36 0.56,-47.5 -37.59,-84.52 -85.2,-82.7 -633.7,24.44 -1252.68,272.91 -1742.88,699.63 -1150.63,1001.68 -1316.02,2702.48 -369.46,3802.43 402.75,468.01 967.33,771.81 1589.77,855.43 46.83,6.29 91.83,-26.84 100.49,-73.94l0.01 0z"/>
        <path class="fil1"
              d="M8004.7 13291.53l-996.25 -342.11c-63.94,-21.94 -133.53,11.94 -155.42,75.72 -21.9,63.75 12.18,133.25 76.13,155.21l996.25 342.11c63.96,21.96 133.54,-11.96 155.42,-75.71 21.89,-63.77 -12.18,-133.26 -76.13,-155.22z"/>
        <path class="fil1"
              d="M6469.22 13856.57c35.38,0 63.39,7.61 84.04,22.85 20.64,15.24 35.38,35.56 44.23,60.96 8.84,25.39 13.28,53.59 13.28,84.61l0 219.75c0,9.1 -3.08,16.85 -9.25,23.25 -6.18,6.42 -13.81,9.62 -22.91,9.62 -9.13,0 -16.77,-3.2 -22.93,-9.62 -6.18,-6.4 -9.25,-14.15 -9.25,-23.25l0 -219.75c0,-20.31 -2.95,-38.64 -8.85,-54.94 -5.89,-16.33 -15.68,-29.42 -29.35,-39.3 -13.66,-9.9 -32.3,-14.85 -55.89,-14.85 -21.98,0 -42.1,4.95 -60.32,14.85 -18.22,9.88 -32.68,22.97 -43.43,39.3 -10.72,16.3 -16.09,34.62 -16.09,54.94l0 219.75c0,9.1 -3.09,16.85 -9.25,23.25 -6.15,6.42 -13.8,9.62 -22.91,9.62 -9.11,0 -16.76,-3.2 -22.92,-9.62 -6.17,-6.4 -9.24,-14.15 -9.24,-23.25l0 -528.52c0,-9.1 3.08,-16.73 9.24,-22.87 6.17,-6.16 13.81,-9.22 22.92,-9.22 9.65,0 17.43,3.07 23.32,9.22 5.9,6.15 8.84,13.77 8.84,22.87l0 239.78 -16.08 17.65c2.68,-13.9 8.57,-27.94 17.69,-42.1 9.11,-14.18 20.64,-26.88 34.58,-38.09 13.93,-11.24 29.5,-20.18 46.64,-26.88 17.16,-6.68 35.12,-10.02 53.89,-10.02zm492.18 -140.34c29.51,0 56.04,7.19 79.64,21.63 23.57,14.44 42.22,34.22 55.89,59.35 13.66,25.14 20.49,53.74 20.49,85.83 0,31.54 -6.83,60.13 -20.49,85.8 -13.67,25.66 -32.31,45.97 -55.89,60.95 -23.6,14.98 -50.13,22.46 -79.64,22.46l-163.24 0 5.62 -9.61 0 202.09c0,9.1 -2.94,16.85 -8.83,23.25 -5.9,6.42 -13.41,9.62 -22.53,9.62 -9.64,0 -17.29,-3.2 -22.9,-9.62 -5.64,-6.4 -8.45,-14.15 -8.45,-23.25l0 -496.45c0,-9.09 3.08,-16.71 9.25,-22.85 6.16,-6.16 13.81,-9.21 22.91,-9.21l188.18 0zm0 274.27c17.71,0 33.25,-4.8 46.66,-14.42 13.39,-9.62 24.12,-22.73 32.15,-39.31 8.05,-16.57 12.06,-34.48 12.06,-53.72 0,-20.34 -4.01,-38.24 -12.06,-53.76 -8.03,-15.5 -18.77,-27.94 -32.15,-37.27 -13.41,-9.38 -28.96,-14.06 -46.66,-14.06l-163.24 0 5.62 -8.82 0 229.39 -5.62 -8.03 163.24 0zm584.68 -131.54c9.63,0 17.44,3.08 23.32,9.21 5.9,6.17 8.85,13.79 8.85,22.86l0 353.7c0,9.1 -3.1,16.85 -9.25,23.25 -6.18,6.42 -13.81,9.62 -22.92,9.62 -9.13,0 -16.77,-3.2 -22.91,-9.62 -6.18,-6.4 -9.27,-14.15 -9.27,-23.25l0 -76.19 15.29 -1.61c0,11.77 -4.02,24.6 -12.06,38.51 -8.04,13.89 -19.04,26.85 -32.97,38.89 -13.93,12.04 -30.28,21.92 -49.06,29.68 -18.77,7.74 -39.13,11.62 -61.12,11.62 -36.44,0 -69.3,-9.47 -98.51,-28.46 -29.21,-19 -52.15,-44.78 -68.76,-77.39 -16.63,-32.63 -24.93,-69.8 -24.93,-111.48 0,-42.26 8.45,-79.54 25.34,-111.9 16.89,-32.32 39.66,-57.75 68.35,-76.19 28.7,-18.45 60.98,-27.67 96.91,-27.67 23.06,0 44.51,3.74 64.34,11.24 19.83,7.47 37.12,17.64 51.87,30.48 14.73,12.82 26.14,26.99 34.17,42.5 8.05,15.52 12.07,31.02 12.07,46.52l-20.92 -4.82 0 -87.43c0,-9.07 3.1,-16.7 9.27,-22.86 6.15,-6.14 13.78,-9.21 22.91,-9.21zm-165.68 367.35c26.82,0 50.53,-6.96 71.17,-20.85 20.66,-13.91 36.86,-32.75 48.65,-56.56 11.81,-23.78 17.71,-50.66 17.71,-80.59 0,-29.41 -5.9,-56.03 -17.71,-79.82 -11.79,-23.78 -27.99,-42.5 -48.65,-56.14 -20.64,-13.63 -44.36,-20.45 -71.17,-20.45 -26.26,0 -49.71,6.69 -70.36,20.05 -20.64,13.36 -36.86,31.82 -48.65,55.34 -11.8,23.53 -17.7,50.54 -17.7,81.02 0,29.93 5.9,56.81 17.7,80.59 11.79,23.8 28.01,42.65 48.65,56.56 20.65,13.89 44.11,20.85 70.36,20.85z"/>
        <path class="fil2"
              d="M14788.56 17654.7c1761.3,3.81 1990.59,101.71 1990.59,-1750.18 0,-844.77 -49.84,-5094.86 10.29,-5561.14l870.38 944.18c822.41,778.58 2244.41,-322.45 1593.33,-1360.62 -93.57,-149.18 -299.63,-362.62 -432.91,-496.77 -90.15,-90.76 -126.61,-165.91 -211.8,-254.96l-8051.34 -8972.82c-408.85,-328.65 -1014.36,-223.86 -1348.49,77.21 -253.44,228.36 -3109.82,3309.19 -3126.02,3353.36 -102.56,279.78 107.87,534.72 392.79,470.65 151.21,-34 398.29,-315.31 502.29,-430.22 892.14,-950.59 1774.49,-1931.54 2678.58,-2867.87 405.17,-387.34 812.73,325.1 1276.73,803.93 2091.3,2356.62 4188.3,4704.73 6286.42,7055.76 80.63,102.06 143.84,141.98 226.33,237.19l431.86 500.83c274.43,349.55 1139.27,976.09 718.98,1351.98 -221.95,198.49 -443.38,85.23 -609.81,-103.55 -2377.47,-2693.59 -4794.69,-5371.95 -7187.51,-8054.2 -160.17,-208.58 -454.2,-595.71 -748.56,-651.42 -341.25,-64.59 -482.58,71.21 -651.27,231.45 -2556.8,2678.03 -5048.37,5417.42 -7618.43,8087.59 -158.52,183.21 -252.3,300.85 -453.61,477.82 -213.05,187.27 -495.89,117.39 -592.95,-100.45 -133.53,-299.66 127.06,-465.34 243.18,-598.13 1198.84,-1249.18 2384.95,-2536.2 3567.93,-3801.41 203.21,-372.31 -197.4,-765.05 -592.79,-359.23 -470.31,494.77 -3515.21,3606.79 -3788.76,4044.47 -639.4,1023 740.05,2126.53 1574.16,1379.8 102.63,-91.89 117.69,-128.23 234.16,-230.16 91.46,-80.07 141.37,-144.69 224.87,-240.52 115.98,-133.12 267.86,-347.51 444.72,-447.06l-1.97 5591.88c0,711.69 -81.7,1137.49 378.43,1493.67 368.03,284.85 1170.95,178.94 1686.85,178.94l3390 0.17c688.38,0.02 685.09,-684.06 -3.26,-688.37 -4653.53,-29.09 -4544.49,39.33 -4653.53,-29.09 -189.81,-222.05 -113.77,-780.07 -113.77,-1149.23l-2.5 -5936.6c-0.64,-285.89 66.62,-278.96 205.76,-437.69l6374.08 -6763.35c781.72,866.88 6202.66,6558.28 6192.47,7123.83 -37.44,2078.54 -16.31,4550.9 -2.52,6673.91 4.6,707.49 -103.79,528.4 -1730.02,517.58 -1304,-8.68 -2233.17,60.45 -2859.95,46.01 -606.81,-13.98 -562.46,633.71 5.41,635.83 1965.4,7.32 1961.36,4.14 3281.15,6.99z"/>
 </g>
</svg>
